HIERARCHY
ROOT hip
{
  OFFSET 0.0 0.0 0.0
  CHANNELS 6 Xposition Yposition Zposition Zrotation Yrotation Xrotation
  JOINT torso
  {
    OFFSET 0.0 0.0 0.0
    CHANNELS 3 Zrotation Xrotation Yrotation
    JOINT neck
    {
      OFFSET -8.059630999999968 325.56260699999996 64.6221310000002
      CHANNELS 3 Zrotation Xrotation Yrotation
      JOINT head
      {
        OFFSET 34.685424000000125 375.1179809999999 232.79357900000002
        CHANNELS 3 Zrotation Xrotation Yrotation
        End Site
        {
          OFFSET 0.0 0.0 0.0
        }
      }
    }
    JOINT left_collar
    {
      OFFSET -8.059630999999968 325.56260699999996 64.6221310000002
      CHANNELS 3 Zrotation Xrotation Yrotation
      JOINT left_upper_arm
      {
        OFFSET -124.124665 -15.370300999999927 25.582641999999964
        CHANNELS 3 Zrotation Xrotation Yrotation
        JOINT left_forearm
        {
          OFFSET -268.19913399999996 105.06054699999993 114.74548300000004
          CHANNELS 3 Zrotation Xrotation Yrotation
          JOINT left_hand
          {
            OFFSET -235.82003099999991 -10.198180999999977 -38.67455999999993
            CHANNELS 3 Zrotation Xrotation Yrotation
            End Site
            {
              OFFSET 0.0 0.0 0.0
            }
          }
        }
      }
    }
    JOINT right_collar
    {
      OFFSET -8.059630999999968 325.56260699999996 64.6221310000002
      CHANNELS 3 Zrotation Xrotation Yrotation
      JOINT right_upper_arm
      {
        OFFSET 162.73931899999997 -2.8598030000000563 26.244994999999903
        CHANNELS 3 Zrotation Xrotation Yrotation
        JOINT right_forearm
        {
          OFFSET 284.6506340000001 103.07031299999994 145.84521499999994
          CHANNELS 3 Zrotation Xrotation Yrotation
          JOINT right_hand
          {
            OFFSET 226.332337 -12.198241999999937 -49.27258299999994
            CHANNELS 3 Zrotation Xrotation Yrotation
            End Site
            {
              OFFSET 0.0 0.0 0.0
            }
          }
        }
      }
    }
  }
}
MOTION
Frames: 13
Frame Time: 0.01
364.5532623045354 224.1464709179966 766.4687375511868 -0.28210163773584895 -1.8359659096368444 -3.999543455777282 0.5120787512336032 1.7221281700871582 -0.05147174667209044 -0.790120674628247 -1.4382457737006442 0.6287561946307904 0.0 0.0 0.0 0.662724348762495 -0.2437446866951324 2.942366101256723 -0.3779073616869664 1.927062385271192 5.375850635698362 -2.2852048379328562 0.3695323338888894 0.21832390318918643 0.0 0.0 0.0 0.49675768145930094 -0.027973352185807966 3.9486784949294425 2.8460921999407813 -0.5976981912224105 -2.223011024598788 0.8967910127253388 0.23771787260414926 0.9334576443631772 0.0 0.0 0.0
364.5451623086568 224.13294654446332 766.4129112797586 -0.2802563707780731 -1.827023502685978 -3.9857943476197923 0.5107613452471647 1.7178072861513498 -0.05135554207304279 -0.7876818810057319 -1.4320444182023093 0.6266309691362787 0.0 0.0 0.0 0.6609134431689234 -0.24335770503654808 2.9368338257794013 -0.3809081863876822 1.9244357437299529 5.371854140991239 -2.2803822848378075 0.3688572738229847 0.21287592750227996 0.0 0.0 0.0 0.5027055598315449 -0.02903612036744623 3.9568321019992276 2.83996603019578 -0.5867039387085706 -2.2434695421855726 0.8915117565288108 0.23656883376747612 0.9324548393855938 0.0 0.0 0.0
364.53901674976447 224.119303982237 766.3604113845661 -0.27839450335364685 -1.8183671193987807 -3.9727039351910336 0.5093607705990879 1.7134489923219955 -0.051225019079965364 -0.7853081162438715 -1.4258194963164816 0.6245445366958464 0.0 0.0 0.0 0.659089997082408 -0.242971312836613 2.931287320420746 -0.383739454397094 1.9220645129012361 5.368364732594129 -2.275161057986344 0.36810451192359517 0.20795894648710186 0.0 0.0 0.0 0.5085833142667219 -0.030089273271967105 3.9647336574366805 2.83394051809503 -0.5762570021889577 -2.2626609812428318 0.8861971022284137 0.23541644348725937 0.9315429827157099 0.0 0.0 0.0
364.5350140541382 224.10554116058023 766.3123585228113 -0.27654994090313634 -1.8100442831884827 -3.9604641126184315 0.507873776464513 1.7091081877216985 -0.05107796568300203 -0.78301764671637 -1.419787404977812 0.6225289967092936 0.0 0.0 0.0 0.6572866379306271 -0.2425860034912 2.9257759315577765 -0.38641980204694676 1.919922746191529 5.365332127234661 -2.269533147972794 0.3672706728652191 0.20366148510007065 0.0 0.0 0.0 0.5143698157232901 -0.031129863055226685 3.9722863998418263 2.8280870549127357 -0.5665553689083077 -2.2801654471368047 0.8808068041508763 0.23425528792620479 0.9307874642491488 0.0 0.0 0.0
364.5332466180603 224.0916719534061 766.2698499722806 -0.2747635978902477 -1.8020902952844111 -3.9492556532919605 0.5063003582334374 1.7048405638871669 -0.050912747067203556 -0.780827045691693 -1.414185201113238 0.6206173440316184 0.0 0.0 0.0 0.655535117780316 -0.2422030732011213 2.9203540977404936 -0.38896916718931024 1.9179734643084996 5.362678426679709 -2.2635002594061366 0.36635430100936206 0.2000572219041488 0.0 0.0 0.0 0.5200447513317541 -0.03215509521374162 3.9793922708963456 2.822480795142259 -0.5577948728884446 -2.2955727405326667 0.8752990567152895 0.2330798162130106 0.9302575435190544 0.0 0.0 0.0
364.53369603001 224.07773012281663 766.2339304316247 -0.2730830839637522 -1.7945266117782415 -3.939242311902924 0.5046443151741593 1.7007015534738479 -0.05072844005348282 -0.778750499652823 -1.4092669330747212 0.6188426835452485 0.0 0.0 0.0 0.6538653097199498 -0.2418246820309415 2.915080421385276 -0.3914079041685534 1.916168630407981 5.360297206788556 -2.2570761560147607 0.3653563388530498 0.19720103771938657 0.0 0.0 0.0 0.5255883608395113 -0.033162271354958674 3.985952438816529 2.817199479485283 -0.5501645827065261 -2.308492871789663 0.869632282210592 0.23188464186030303 0.9300247219778512 0.0 0.0 0.0
364.53622112861524 224.063772044046 766.2055619966886 -0.27156201673762165 -1.787359480539771 -3.9305646941467556 0.5029137026686028 1.6967453400450732 -0.050524946307599745 -0.7767990815171573 -1.4052992249704803 0.617237352761605 0.0 0.0 0.0 0.6523043209801849 -0.24145382813626887 2.910016223027422 -0.39375625906664197 1.9144492666183088 5.358053322896214 -2.250288996704905 0.36428060617207536 0.19512509805879583 0.0 0.0 0.0 0.5309812974736453 -0.034148751738831695 3.9918682190377535 2.812321819337858 -0.5438416884770405 -2.3185673585821447 0.8637669212634239 0.23066483697580425 0.9301609430223952 0.0 0.0 0.0
364.54054960608175 224.04987796119593 766.18559420267 -0.27025893915180516 -1.780578906230254 -3.9233340714721767 0.5011211447745509 1.6930239584802451 -0.050303077038903424 -0.7749800168382203 -1.4025561574143601 0.6158319727701742 0.0 0.0 0.0 0.650875753474267 -0.2410942280759584 2.90522356623091 -0.39603424951313276 1.9127457328701116 5.355783530202257 -2.2431835588342173 0.36313426056104264 0.1938350924351742 0.0 0.0 0.0 0.5362046424683019 -0.035111943308656475 3.9970424096275603 2.8079254296789844 -0.5389859920986653 -2.325481011872971 0.8576671542614425 0.22941620606421137 0.9307366632762182 0.0 0.0 0.0
364.5462737976137 224.03615161433862 766.1747351533147 -0.2692358354702139 -1.7741580079418022 -3.917626358761841 0.4992839729548853 1.6895865052087335 -0.050064602223124886 -0.7732959725519261 -1.4013135197027524 0.6146544530104081 0.0 0.0 0.0 0.6495991280432839 -0.24075010323941726 2.9007627769638775 -0.39826195014004895 1.9109781989002568 5.3532980023594545 -2.235823227191511 0.3619282164938746 0.19330676955729884 0.0 0.0 0.0 0.541240086039412 -0.036049316846372054 4.001380966762609 2.80408432496397 -0.535734179451647 -2.3289737518769957 0.8513024862797544 0.22813552660905986 0.931818829507995 0.0 0.0 0.0
364.5528511851369 224.0227181872463 766.1735248710967 -0.268556260946093 -1.7680528270957632 -3.913476507753943 0.4974241611798907 1.6864784641119221 -0.0498122585842648 -0.7717444004904893 -1.4018425385236517 0.6137289798780394 0.0 0.0 0.0 0.6484894741032812 -0.2404258800956358 2.896689521026549 -0.4004601387664548 1.9090573480235777 5.350382807479196 -2.2282916168702656 0.36067749748274114 0.19348292462669325 0.0 0.0 0.0 0.5460702692783077 -0.036958454387633774 4.004794852562878 2.800866023938384 -0.5341941258142687 -2.328851842360283 0.8446491388144034 0.22682074548282713 0.933468788589025 0.0 0.0 0.0
364.55960998946705 224.00972064609346 766.1823120831815 -0.2682831250087122 -1.7622026347922244 -3.910873594522681 0.49556803652259984 1.6837411402428244 -0.049549712630833104 -0.7703169698822794 -1.40440321533604 0.6130750230406284 0.0 0.0 0.0 0.6475570734880968 -0.24012581945662756 2.8930515436497877 -0.4026512138462433 1.9068853552716922 5.346803368449618 -2.2206936997063647 0.359401495067128 0.1942710154734246 0.0 0.0 0.0 0.5506792610306926 -0.03783712470820756 4.0072018224016155 2.798328346943383 -0.5344395413891202 -2.3249978316176985 0.8376912027063629 0.22547112273984787 0.9357401629135129 0.0 0.0 0.0
364.5657600350391 223.9973146638248 766.2012356910365 -0.26847619422857 -1.7565307770973675 -3.9097568895475088 0.49374575718340885 1.681411180951136 -0.04928147779955909 -0.7689991233157657 -1.409237428602465 0.6127063958671625 0.0 0.0 0.0 0.6468073377221741 -0.23985359593044372 2.889885208730476 -0.4048602561848469 1.904357182223085 5.342308897665206 -2.2131563170764155 0.3581241093070793 0.19554160460885628 0.0 0.0 0.0 0.555053121124811 -0.03868338022365209 4.008527906124418 2.7965160333524124 -0.536505288769711 -2.317378478480359 0.83042151444668 0.22408731675555182 0.9386767405469371 0.0 0.0 0.0
364.57040885570524 223.985662438405 766.2302121395487 -0.26918940628547183 -1.7509460832982622 -3.9100131912665432 0.491990565018091 1.6795201548385188 -0.04901278785609644 -0.7677697890142553 -1.4165619784413168 0.612630407508541 0.0 0.0 0.0 0.6462407919951095 -0.23961185243196015 2.8872119955465148 -0.4071160822822758 1.9013622271221122 5.336637761759527 -2.2058279826692093 0.3568737478481018 0.19712783379678067 0.0 0.0 0.0 0.5591804787247819 -0.03949566351136211 4.008708380100914 2.7954573494133554 -0.5403836936702663 -2.306050025104167 0.8228422291984233 0.2226714080276231 0.9423104503030191 0.0 0.0 0.0
